<svg width="202" height="57" viewBox="0 0 202 57" fill="none" xmlns="http://www.w3.org/2000/svg">
<path fill-rule="evenodd" clip-rule="evenodd" d="M24.4 0.9C37.1 0.9 49.1 10.8 49.1 25.2C49.1 33.3 45.3 39.9 39.9 44.3C41.5 46.9 43.5 48.7 45.9 48.7C48.7 48.7 49.9 46.5 50.1 44.7H53.7C53.9 47.1 52.7 56.3 42.7 56.3C36.5 56.3 33.3 52.7 30.9 48.7C28.9 49.1 26.7 49.5 24.5 49.5C12.2 49.5 0 39.6 0 25.2C0 10.8 12.2 0.9 24.4 0.9ZM114.1 11.8C124.3 11.8 132.5 19 132.6 29.7C132.6 41 124.3 48.4 114.1 48.4C104.2 48.4 95.6 40.9 95.6 29.7C95.6 18.8 104.1 11.8 114.1 11.8ZM181.4 11.8C190.4 11.8 196 14.2 196 23.2V38.6C196 41 196.8 42.2 198.8 42.2C199.8 42.2 200.6 41.8 201 41.6L201.9 43.4C201.1 44.8 198.5 47.4 193.7 47.4C189.5 47.4 186.9 45.4 186.5 42.2H186.3C184.3 45.8 180.7 48.2 175.5 48.2C169.3 48.2 165.5 45 165.5 39.2C165.5 27.8 181.4 31 186 23.4V21.6C186 16.2 183.8 15 181.4 15C174.2 15 177.4 23.4 171 23.4C167.8 23.4 166.6 21.6 166.6 19.4C166.6 15.2 171.8 11.8 181.4 11.8ZM67.6 12.6V36C67.6 40.4 69.8 42.4 73 42.4C75.6 42.4 78.4 41.2 79.8 38.4V19C79.8 17 79.2 16.2 77 16.2H74.6V12.6H89.8V38.3C89.8 40.7 90.6 41.9 93.4 41.9H93.8V45.7L80.2 47.9V42.8H80C77.4 46.1 73.6 48.1 68.6 48.1C62.4 48.1 57.8 44.9 57.8 36.3V19C57.8 17 57 16.2 54.8 16.2H52.6V12.6H67.6ZM157.9 12C161.1 12 163.7 13.8 163.7 17.4C163.7 20 162.5 22.6 158.9 22.6C155.9 22.6 155.3 19.8 152.7 19.8C150.5 19.8 148.7 22 148.7 25.2V39.4C148.7 42.6 149.5 43.6 153.1 43.6H155.1V47.4H133.5V43.7H134.9C138.5 43.7 138.9 42.7 138.9 39.5V19C138.9 17 137.9 16.2 135.7 16.2H133.7V12.6H147.5L148.1 19.8H148.5C149.9 14.6 154.1 12 157.9 12ZM24.5 4.8C15.3 4.8 11.3 11.7 11.3 25.1C11.3 38.5 15.3 45.4 24.5 45.4C26.2 45.4 27.7 45 28.9 44.6C27.1 40.4 24.7 36.4 20.1 36.4C19.3 36.4 18.5 36.6 17.7 37L16.3 34.2C18.3 32.5 21 31.2 24.7 31.2C30.5 31.2 33.5 34 35.9 37.6C37.3 34.6 37.9 30.4 37.9 25.1C37.9 11.7 33.9 4.8 24.5 4.8ZM114.1 15.2C109.3 15.2 106.5 20 106.5 29.6C106.5 39.4 109.3 44.4 114.1 44.4C119.3 44.4 121.3 39.4 121.5 29.6C121.7 20.1 119.3 15.2 114.1 15.2ZM185.9 27.6C182.7 31.1 175.3 31.6 175.3 38C175.3 41.2 177.3 43 179.9 43C184.3 43 185.9 39.2 185.9 35V27.6Z" fill="#F91E1E"/>
</svg>
